<?xml version="1.0" encoding="UTF-8"?>
<svg id="Layer_2" data-name="Layer 2" xmlns="http://www.w3.org/2000/svg" xmlns:xlink="http://www.w3.org/1999/xlink" viewBox="0 0 513.35 160.45">
  <defs>
    <style>
      .cls-1 {
        fill: #252e60;
      }

      .cls-2 {
        fill: #fff;
      }

      .cls-3 {
        fill: #7797c2;
      }

      .cls-4 {
        fill: url(#New_Gradient_Swatch);
      }
    </style>
    <linearGradient id="New_Gradient_Swatch" data-name="New Gradient Swatch" x1="114.04" y1="91.3" x2="513.35" y2="91.3" gradientUnits="userSpaceOnUse">
      <stop offset="0" stop-color="#2b2656"/>
      <stop offset="1" stop-color="#4b97d2"/>
    </linearGradient>
  </defs>
  <g id="Layer_1" data-name="Layer 1">
    <g>
      <g>
        <polygon class="cls-3" points="111.84 17.32 111.84 48.01 111.76 48.06 111.7 48.09 111.14 48.41 111.08 48.44 110.8 48.6 110.49 48.78 109.89 49.12 109.83 49.15 108.78 49.75 108.64 49.83 108.58 49.87 108.47 49.93 107.41 50.53 107.33 50.58 106.45 51.08 106.16 51.24 106.14 51.26 106.08 51.29 104.91 51.95 104.83 52 104.12 52.41 103.8 52.58 103.65 52.67 103.58 52.7 102.4 53.36 102.34 53.41 101.78 53.72 101.47 53.9 101.15 54.08 101.09 54.12 99.9 54.79 99.84 54.82 99.45 55.05 99.14 55.23 98.67 55.5 98.59 55.53 97.42 56.2 97.35 56.25 97.12 56.38 96.8 56.55 96.17 56.91 96.1 56.96 94.92 57.62 94.85 57.65 94.79 57.69 94.47 57.87 93.68 58.32 93.6 58.37 92.45 59.02 92.43 59.03 92.35 59.08 92.14 59.2 91.18 59.74 91.1 59.79 90.12 60.35 89.93 60.46 89.85 60.5 89.81 60.53 88.68 61.17 88.62 61.2 87.79 61.68 87.47 61.85 87.43 61.88 87.37 61.91 86.18 62.59 86.12 62.63 85.46 63 85.14 63.18 84.94 63.29 84.86 63.34 84.1 63.76 83.69 64 83.61 64.03 83.12 64.31 82.81 64.49 82.44 64.7 82.36 64.75 81.19 65.4 81.13 65.43 80.79 65.62 80.48 65.8 79.96 66.09 79.88 66.14 78.71 66.79 78.63 66.84 78.46 66.93 78.14 67.1 77.46 67.48 77.38 67.53 76.2 68.2 76.14 68.23 76.12 68.24 75.81 68.41 74.95 68.89 74.89 68.92 73.79 69.54 73.7 69.59 73.64 69.62 73.48 69.71 72.45 70.29 72.39 70.33 71.46 70.85 71.22 70.98 71.15 71.03 71.14 71.03 69.97 71.68 69.89 71.73 69.13 72.16 68.81 72.34 68.72 72.39 68.64 72.42 67.47 73.09 67.39 73.14 66.79 73.46 66.48 73.64 66.22 73.78 66.15 73.82 64.97 74.48 64.9 74.53 64.46 74.77 64.15 74.95 63.73 75.18 63.65 75.23 62.48 75.88 62.42 75.92 62.13 76.08 61.82 76.26 61.23 76.59 61.17 76.62 59.98 77.28 59.92 77.32 59.8 77.38 59.48 77.56 58.73 77.98 58.67 78.01 57.5 78.68 57.47 78.69 57.42 78.72 57.15 78.87 56.24 79.37 56.16 79.42 55.13 79.99 54.99 80.07 54.91 80.12 54.82 80.17 53.74 80.78 53.66 80.81 52.8 81.3 52.49 81.48 52.49 81.48 52.43 81.51 51.24 82.17 51.18 82.21 50.47 82.6 50.15 82.78 49.99 82.87 49.93 82.92 48.76 83.57 48.68 83.62 48.13 83.92 47.82 84.09 47.51 84.26 47.43 84.31 46.26 84.98 46.19 85.01 45.8 85.23 45.49 85.4 45.01 85.67 44.94 85.71 43.75 86.37 43.69 86.4 43.47 86.53 43.16 86.71 42.52 87.07 42.44 87.11 41.27 87.76 41.19 87.81 41.14 87.84 40.82 88.01 40.02 88.46 39.95 88.51 38.8 89.15 38.77 89.17 38.7 89.2 38.49 89.32 37.52 89.87 37.45 89.9 36.47 90.45 36.27 90.57 36.2 90.6 36.16 90.62 35.03 91.26 34.95 91.31 34.14 91.76 33.83 91.93 33.78 91.96 33.7 92.01 32.53 92.65 32.45 92.7 31.81 93.07 31.49 93.25 31.28 93.37 31.2 93.4 30.03 94.06 29.97 94.09 29.63 94.28 29.32 94.46 28.3 95.03 28.3 66.04 29.32 65.46 29.63 65.27 29.97 65.08 30.03 65.03 31.2 64.35 31.28 64.3 31.49 64.18 31.81 64 32.45 63.62 32.53 63.57 33.7 62.89 33.78 62.85 33.83 62.82 34.14 62.64 34.95 62.17 35.03 62.12 36.16 61.46 36.2 61.44 36.27 61.41 36.47 61.29 37.45 60.71 37.52 60.68 38.49 60.11 38.7 59.98 38.77 59.93 38.8 59.91 39.95 59.25 40.02 59.21 40.82 58.74 41.14 58.56 41.19 58.52 41.27 58.48 42.44 57.8 42.52 57.75 43.16 57.38 43.47 57.2 43.69 57.07 43.75 57.04 44.94 56.34 45.01 56.31 45.49 56.02 45.8 55.84 46.19 55.61 46.26 55.58 47.43 54.88 47.51 54.85 47.82 54.67 48.13 54.48 48.68 54.16 48.76 54.11 49.93 53.43 49.99 53.4 50.15 53.3 50.47 53.12 51.18 52.7 51.24 52.67 52.43 51.97 52.49 51.94 52.49 51.94 52.8 51.76 53.66 51.26 53.74 51.21 54.82 50.59 54.91 50.53 54.99 50.48 55.13 50.4 56.16 49.79 56.24 49.75 57.15 49.22 57.42 49.06 57.47 49.04 57.5 49.03 58.67 48.33 58.73 48.3 59.48 47.86 59.8 47.67 59.92 47.6 59.98 47.57 61.17 46.87 61.23 46.84 61.82 46.5 62.13 46.31 62.42 46.15 62.48 46.11 63.65 45.43 63.73 45.39 64.15 45.14 64.46 44.96 64.9 44.71 64.97 44.66 66.15 43.96 66.22 43.93 66.48 43.78 66.79 43.59 67.39 43.25 67.47 43.2 68.64 42.52 68.72 42.47 68.81 42.42 69.13 42.24 69.89 41.79 69.97 41.74 71.14 41.06 71.15 41.06 71.22 41.02 71.46 40.88 72.39 40.34 72.45 40.29 73.48 39.7 73.64 39.61 73.7 39.56 73.79 39.51 74.89 38.88 74.95 38.83 75.81 38.33 76.12 38.15 76.14 38.14 76.2 38.1 77.38 37.42 77.46 37.38 78.14 36.98 78.46 36.79 78.63 36.7 78.71 36.65 79.88 35.97 79.96 35.92 80.48 35.62 80.79 35.44 81.13 35.24 81.19 35.19 82.36 34.51 82.44 34.46 82.81 34.25 83.12 34.07 83.61 33.78 83.69 33.74 84.86 33.05 84.94 33.01 85.14 32.89 85.46 32.71 85.54 32.66 86.12 32.33 86.18 32.29 87.37 31.6 87.43 31.57 87.47 31.54 87.79 31.36 88.62 30.87 88.68 30.82 89.81 30.17 89.85 30.14 89.93 30.09 90.12 29.98 91.1 29.41 91.18 29.37 92.14 28.81 92.35 28.68 92.43 28.64 92.45 28.62 93.6 27.96 93.68 27.91 94.47 27.45 94.79 27.27 94.85 27.23 94.92 27.2 96.1 26.5 96.17 26.47 96.8 26.1 97.12 25.91 97.35 25.77 97.42 25.72 98.59 25.04 98.67 25 99.14 24.72 99.45 24.54 99.84 24.32 99.9 24.28 101.09 23.59 101.15 23.56 101.47 23.37 101.78 23.19 102.34 22.86 102.4 22.83 103.58 22.15 103.65 22.1 103.8 22.01 104.12 21.83 104.83 21.4 104.91 21.37 106.08 20.67 106.14 20.64 106.16 20.63 106.45 20.46 107.33 19.95 107.41 19.9 108.47 19.28 108.58 19.22 108.64 19.19 108.78 19.1 109.83 18.49 109.89 18.46 110.49 18.11 110.8 17.92 111.08 17.76 111.14 17.73 111.7 17.4 111.76 17.37 111.84 17.32"/>
        <polygon class="cls-3" points="83.3 67.85 83.3 96.91 83.12 97.01 82.81 97.19 82.44 97.4 82.36 97.44 81.19 98.12 81.13 98.15 80.79 98.34 80.48 98.52 79.96 98.81 79.88 98.86 78.71 99.52 78.63 99.56 78.46 99.65 78.14 99.83 77.46 100.22 77.38 100.27 76.2 100.93 76.14 100.98 76.12 100.99 75.81 101.17 74.95 101.65 74.89 101.68 73.79 102.31 73.7 102.36 73.64 102.39 73.48 102.48 72.45 103.07 72.39 103.1 71.46 103.63 71.22 103.77 71.15 103.81 71.14 103.82 69.97 104.48 69.89 104.53 69.13 104.96 68.81 105.14 68.72 105.19 68.64 105.24 67.47 105.9 67.39 105.95 66.79 106.29 66.48 106.47 66.22 106.62 66.15 106.65 64.97 107.31 64.9 107.36 64.46 107.61 64.15 107.79 63.73 108.03 63.65 108.07 62.48 108.74 62.42 108.77 62.13 108.93 61.82 109.11 61.23 109.43 61.17 109.48 59.98 110.15 59.92 110.19 59.8 110.26 59.48 110.44 58.73 110.86 58.67 110.89 57.5 111.56 57.47 111.57 57.42 111.6 57.15 111.75 56.24 112.27 56.16 112.32 55.13 112.9 55.13 112.9 54.99 112.98 54.91 113.03 54.82 113.08 53.74 113.68 53.66 113.71 52.8 114.19 52.49 114.36 52.49 114.36 52.43 114.4 51.24 115.05 51.18 115.09 50.47 115.48 50.15 115.66 49.99 115.75 49.93 115.78 48.76 116.43 48.68 116.48 48.13 116.78 47.82 116.95 47.51 117.13 47.43 117.18 46.26 117.81 46.19 117.86 45.8 118.07 45.49 118.24 45.01 118.51 44.94 118.54 43.75 119.2 43.69 119.23 43.47 119.35 43.16 119.53 42.52 119.88 42.44 119.93 41.27 120.58 41.19 120.63 41.14 120.65 40.82 120.82 40.02 121.26 39.95 121.31 38.8 121.94 38.77 121.96 38.7 121.99 38.49 122.11 37.52 122.65 37.45 122.69 36.47 123.24 36.27 123.35 36.2 123.38 36.16 123.41 35.03 124.03 34.95 124.08 34.14 124.53 33.83 124.7 33.78 124.73 33.7 124.76 32.53 125.41 32.45 125.45 31.81 125.81 31.49 125.99 31.28 126.1 31.2 126.15 30.03 126.8 29.97 126.83 29.63 127.02 29.32 127.19 28.3 127.75 28.3 98.65 29.32 98.08 29.63 97.91 29.97 97.72 30.03 97.69 31.2 97.02 31.28 96.99 31.49 96.87 31.81 96.69 32.45 96.33 32.53 96.28 33.7 95.63 33.78 95.58 33.83 95.56 34.14 95.39 34.95 94.93 35.03 94.89 36.16 94.25 36.2 94.22 36.27 94.19 36.47 94.08 37.45 93.53 37.52 93.49 38.49 92.95 38.7 92.83 38.77 92.8 38.8 92.78 39.95 92.13 40.02 92.08 40.82 91.64 41.14 91.46 41.19 91.44 41.27 91.39 42.44 90.74 42.52 90.69 43.16 90.34 43.47 90.16 43.69 90.04 43.75 89.99 44.94 89.33 45.01 89.3 45.49 89.03 45.8 88.85 46.19 88.63 46.26 88.6 47.43 87.94 47.51 87.91 47.82 87.73 48.13 87.55 48.68 87.24 48.76 87.19 49.93 86.54 49.99 86.51 50.15 86.42 50.47 86.25 51.18 85.85 51.24 85.8 52.43 85.14 52.49 85.11 52.49 85.1 52.8 84.93 53.66 84.45 53.74 84.41 54.82 83.8 54.91 83.74 54.99 83.71 55.13 83.63 56.16 83.05 56.24 83 57.15 82.49 57.42 82.35 57.47 82.32 57.5 82.3 58.67 81.65 58.73 81.6 59.48 81.18 59.8 81.01 59.92 80.94 59.98 80.91 61.17 80.24 61.23 80.21 61.82 79.88 62.13 79.71 62.42 79.55 62.48 79.52 63.65 78.85 63.73 78.8 64.15 78.57 64.46 78.4 64.9 78.15 64.97 78.12 66.15 77.46 66.22 77.41 66.48 77.26 66.79 77.09 67.39 76.76 67.47 76.71 68.64 76.06 68.72 76.02 68.81 75.96 69.13 75.78 69.89 75.35 69.97 75.32 71.14 74.66 71.15 74.65 71.22 74.61 71.46 74.47 72.39 73.96 72.45 73.93 73.48 73.35 73.64 73.26 73.7 73.22 73.79 73.17 74.89 72.55 74.95 72.52 75.81 72.04 76.12 71.86 76.14 71.85 76.2 71.82 77.38 71.17 77.46 71.13 78.14 70.73 78.46 70.56 78.63 70.46 78.71 70.41 79.88 69.76 79.96 69.72 80.48 69.43 80.79 69.26 81.13 69.07 81.19 69.04 82.36 68.37 82.44 68.32 82.81 68.12 83.12 67.95 83.3 67.85"/>
        <polygon class="cls-3" points="54.31 116.99 54.31 146.06 53.74 146.38 53.66 146.43 52.8 146.91 52.49 147.08 52.49 147.08 52.43 147.11 51.24 147.76 51.18 147.81 50.47 148.2 50.15 148.37 49.99 148.46 49.93 148.49 48.76 149.14 48.68 149.18 48.13 149.48 47.82 149.66 47.51 149.83 47.43 149.88 46.26 150.53 46.19 150.56 45.8 150.77 45.49 150.95 45.01 151.21 44.94 151.26 43.75 151.91 43.69 151.94 43.47 152.06 43.16 152.23 42.52 152.59 42.44 152.63 41.27 153.28 41.19 153.33 41.14 153.36 40.82 153.54 40.02 153.98 39.95 154.01 38.8 154.64 38.77 154.66 38.7 154.71 38.49 154.83 37.52 155.36 37.45 155.39 36.47 155.94 36.27 156.05 36.2 156.09 36.16 156.11 35.03 156.74 34.95 156.78 34.14 157.23 33.83 157.41 33.78 157.43 33.7 157.46 32.53 158.11 32.45 158.16 31.81 158.52 31.49 158.69 31.28 158.81 31.2 158.86 30.03 159.5 29.97 159.54 29.63 159.72 29.32 159.89 28.3 160.45 28.3 131.36 29.32 130.8 29.63 130.63 29.97 130.44 30.03 130.41 31.2 129.76 31.28 129.71 31.49 129.59 31.81 129.42 32.45 129.06 32.53 129.02 33.7 128.38 33.78 128.34 33.83 128.31 34.14 128.14 34.95 127.69 35.03 127.64 36.16 127.01 36.2 126.99 36.27 126.96 36.47 126.85 37.45 126.31 37.52 126.26 38.49 125.73 38.7 125.61 38.77 125.58 38.8 125.56 39.95 124.92 40.02 124.88 40.82 124.44 41.14 124.26 41.19 124.23 41.27 124.19 42.44 123.54 42.52 123.51 43.16 123.15 43.47 122.98 43.69 122.86 43.75 122.83 44.94 122.16 45.01 122.13 45.49 121.87 45.8 121.69 46.19 121.48 46.26 121.43 47.43 120.78 47.51 120.75 47.82 120.58 48.13 120.4 48.68 120.1 48.76 120.06 49.93 119.41 49.99 119.38 50.15 119.28 50.47 119.11 51.18 118.71 51.24 118.68 52.43 118.03 52.49 118 52.49 118 52.8 117.83 53.66 117.35 53.74 117.3 54.31 116.99"/>
      </g>
      <g>
        <g>
          <polygon class="cls-2" points="29.95 65.15 29.95 94.16 29.63 94.34 29.63 65.33 29.95 65.15"/>
          <polygon class="cls-2" points="29.95 97.79 29.95 126.89 29.63 127.07 29.63 97.96 29.95 97.79"/>
          <polygon class="cls-2" points="29.63 130.68 29.95 130.5 29.95 159.6 29.63 159.77 29.63 130.68"/>
        </g>
        <g>
          <polygon class="cls-2" points="32.12 63.87 32.12 92.95 31.81 93.12 31.81 64.06 32.12 63.87"/>
          <polygon class="cls-2" points="32.12 96.57 32.12 125.69 31.81 125.86 31.81 96.75 32.12 96.57"/>
          <polygon class="cls-2" points="31.81 129.47 32.12 129.3 32.12 158.39 31.81 158.57 31.81 129.47"/>
        </g>
        <g>
          <polygon class="cls-2" points="34.46 62.52 34.46 91.64 34.14 91.81 34.14 62.7 34.46 62.52"/>
          <polygon class="cls-2" points="34.46 95.26 34.46 124.41 34.14 124.58 34.14 95.44 34.46 95.26"/>
          <polygon class="cls-2" points="34.14 128.19 34.46 128.01 34.46 157.11 34.14 157.28 34.14 128.19"/>
        </g>
        <g>
          <polygon class="cls-2" points="36.79 61.16 36.79 90.33 36.58 90.44 36.52 90.47 36.47 90.5 36.47 61.34 36.52 61.32 36.58 61.28 36.79 61.16"/>
          <polygon class="cls-2" points="36.79 93.95 36.79 123.11 36.58 123.23 36.52 123.26 36.47 123.28 36.47 94.12 36.52 94.1 36.58 94.07 36.79 93.95"/>
          <polygon class="cls-2" points="36.58 126.84 36.79 126.73 36.79 155.82 36.58 155.93 36.52 155.96 36.47 155.99 36.47 126.89 36.52 126.87 36.58 126.84"/>
        </g>
        <g>
          <polygon class="cls-2" points="39.12 59.79 39.12 89.03 39.08 89.05 39.02 89.08 38.81 89.2 38.81 59.98 39.02 59.86 39.08 59.81 39.12 59.79"/>
          <polygon class="cls-2" points="39.12 92.65 39.12 121.81 39.08 121.83 39.02 121.87 38.81 121.98 38.81 92.83 39.02 92.71 39.08 92.67 39.12 92.65"/>
          <polygon class="cls-2" points="39.08 125.46 39.12 125.44 39.12 154.52 39.08 154.54 39.02 154.59 38.81 154.7 38.81 125.61 39.02 125.49 39.08 125.46"/>
        </g>
        <g>
          <polygon class="cls-2" points="41.45 58.43 41.45 87.72 41.14 87.89 41.14 58.61 41.45 58.43"/>
          <polygon class="cls-2" points="41.45 91.34 41.45 120.53 41.14 120.7 41.14 91.52 41.45 91.34"/>
          <polygon class="cls-2" points="41.14 124.32 41.45 124.14 41.45 153.24 41.14 153.41 41.14 124.32"/>
        </g>
        <g>
          <polygon class="cls-2" points="43.79 57.07 43.79 86.4 43.47 86.58 43.47 57.26 43.79 57.07"/>
          <polygon class="cls-2" points="43.79 90.04 43.79 119.23 43.47 119.41 43.47 90.22 43.79 90.04"/>
          <polygon class="cls-2" points="43.47 123.03 43.79 122.86 43.79 151.94 43.47 152.11 43.47 123.03"/>
        </g>
        <g>
          <polygon class="cls-2" points="46.12 55.72 46.12 85.1 45.8 85.28 45.8 55.9 46.12 55.72"/>
          <polygon class="cls-2" points="46.12 88.73 46.12 117.95 45.8 118.12 45.8 88.91 46.12 88.73"/>
          <polygon class="cls-2" points="45.8 121.74 46.12 121.57 46.12 150.65 45.8 150.82 45.8 121.74"/>
        </g>
        <g>
          <polygon class="cls-2" points="48.45 54.36 48.45 83.79 48.14 83.97 48.14 54.54 48.45 54.36"/>
          <polygon class="cls-2" points="48.45 87.43 48.45 116.66 48.14 116.83 48.14 87.61 48.45 87.43"/>
          <polygon class="cls-2" points="48.14 120.46 48.45 120.28 48.45 149.36 48.14 149.54 48.14 120.46"/>
        </g>
        <g>
          <polygon class="cls-2" points="50.78 53 50.78 82.48 50.47 82.66 50.47 53.18 50.78 53"/>
          <polygon class="cls-2" points="50.78 86.12 50.78 115.36 50.47 115.54 50.47 86.3 50.78 86.12"/>
          <polygon class="cls-2" points="50.47 119.16 50.78 118.99 50.78 148.07 50.47 148.24 50.47 119.16"/>
        </g>
        <g>
          <polygon class="cls-2" points="53.12 51.64 53.12 81.18 52.81 81.36 52.8 81.36 52.8 51.82 52.81 51.82 53.12 51.64"/>
          <polygon class="cls-2" points="53.12 84.81 53.12 114.06 52.81 114.24 52.8 114.24 52.8 84.98 52.81 84.98 53.12 84.81"/>
          <polygon class="cls-2" points="52.81 117.88 53.12 117.71 53.12 146.79 52.81 146.96 52.8 146.96 52.8 117.88 52.81 117.88"/>
        </g>
        <g>
          <polygon class="cls-2" points="55.45 50.28 55.45 79.87 55.31 79.95 55.23 80 55.13 80.05 55.13 50.46 55.23 50.41 55.31 50.36 55.45 50.28"/>
          <polygon class="cls-2" points="55.31 83.59 55.45 83.51 55.45 112.78 55.31 112.86 55.23 112.91 55.13 112.96 55.13 83.67 55.23 83.62 55.31 83.59"/>
        </g>
        <g>
          <polygon class="cls-2" points="57.78 48.92 57.78 78.57 57.73 78.6 57.47 78.75 57.47 49.09 57.73 48.94 57.78 48.92"/>
          <polygon class="cls-2" points="57.73 82.23 57.78 82.2 57.78 111.45 57.73 111.48 57.47 111.63 57.47 82.37 57.73 82.23"/>
        </g>
        <g>
          <polygon class="cls-2" points="60.11 47.55 60.11 77.26 59.8 77.43 59.8 47.73 60.11 47.55"/>
          <polygon class="cls-2" points="59.8 81.06 60.11 80.89 60.11 110.14 59.8 110.31 59.8 81.06"/>
        </g>
        <g>
          <polygon class="cls-2" points="62.45 46.19 62.45 75.96 62.13 76.14 62.13 46.38 62.45 46.19"/>
          <polygon class="cls-2" points="62.13 79.76 62.45 79.59 62.45 108.81 62.13 108.98 62.13 79.76"/>
        </g>
        <g>
          <polygon class="cls-2" points="64.78 44.84 64.78 74.65 64.47 74.83 64.47 45.02 64.78 44.84"/>
          <polygon class="cls-2" points="64.47 78.45 64.78 78.28 64.78 107.49 64.47 107.67 64.47 78.45"/>
        </g>
        <g>
          <polygon class="cls-2" points="67.11 43.47 67.11 73.34 66.8 73.52 66.8 43.65 67.11 43.47"/>
          <polygon class="cls-2" points="66.8 77.14 67.11 76.97 67.11 106.17 66.8 106.34 66.8 77.14"/>
        </g>
        <g>
          <polygon class="cls-2" points="69.44 42.11 69.44 72.04 69.13 72.21 69.13 42.29 69.44 42.11"/>
          <polygon class="cls-2" points="69.13 75.84 69.44 75.66 69.44 104.84 69.13 105.01 69.13 75.84"/>
        </g>
        <g>
          <polygon class="cls-2" points="71.78 40.75 71.78 70.73 71.53 70.86 71.46 70.91 71.46 40.94 71.53 40.89 71.78 40.75"/>
          <polygon class="cls-2" points="71.53 74.49 71.78 74.35 71.78 103.51 71.53 103.64 71.46 103.69 71.46 74.53 71.53 74.49"/>
        </g>
        <g>
          <polygon class="cls-2" points="74.11 39.39 74.11 69.42 74.02 69.47 73.96 69.5 73.8 69.59 73.8 39.58 73.96 39.49 74.02 39.44 74.11 39.39"/>
          <polygon class="cls-2" points="74.02 73.09 74.11 73.04 74.11 102.18 74.02 102.24 73.96 102.27 73.8 102.36 73.8 73.23 73.96 73.14 74.02 73.09"/>
        </g>
        <g>
          <polygon class="cls-2" points="76.44 38.02 76.44 68.12 76.13 68.29 76.13 38.21 76.44 38.02"/>
          <polygon class="cls-2" points="76.13 71.92 76.44 71.74 76.44 100.87 76.13 101.04 76.13 71.92"/>
        </g>
        <g>
          <polygon class="cls-2" points="78.77 36.67 78.77 66.81 78.46 66.98 78.46 36.85 78.77 36.67"/>
          <polygon class="cls-2" points="78.46 70.61 78.77 70.43 78.77 99.53 78.46 99.71 78.46 70.61"/>
        </g>
        <g>
          <polygon class="cls-2" points="81.11 35.31 81.11 65.5 80.79 65.67 80.79 35.5 81.11 35.31"/>
          <polygon class="cls-2" points="80.79 69.31 81.11 69.13 81.11 98.22 80.79 98.39 80.79 69.31"/>
        </g>
        <g>
          <polygon class="cls-2" points="83.44 33.95 83.44 64.19 83.13 64.37 83.13 34.13 83.44 33.95"/>
          <polygon class="cls-2" points="83.13 68 83.44 67.82 83.44 96.89 83.13 97.07 83.13 68"/>
        </g>
        <polygon class="cls-2" points="85.77 32.59 85.77 62.88 85.46 63.05 85.46 32.77 85.77 32.59"/>
        <polygon class="cls-2" points="88.1 31.23 88.1 61.55 87.79 61.73 87.79 31.42 88.1 31.23"/>
        <polygon class="cls-2" points="90.44 29.86 90.44 60.23 90.25 60.33 90.17 60.38 90.12 60.41 90.12 30.04 90.17 30.02 90.25 29.97 90.44 29.86"/>
        <polygon class="cls-2" points="92.77 28.5 92.77 58.9 92.75 58.91 92.67 58.96 92.46 59.08 92.46 28.69 92.67 28.56 92.75 28.52 92.77 28.5"/>
        <polygon class="cls-2" points="95.1 27.15 95.1 57.57 94.79 57.75 94.79 27.33 95.1 27.15"/>
        <polygon class="cls-2" points="97.43 25.79 97.43 56.25 97.12 56.43 97.12 25.97 97.43 25.79"/>
        <polygon class="cls-2" points="99.77 24.42 99.77 54.92 99.45 55.11 99.45 24.6 99.77 24.42"/>
        <polygon class="cls-2" points="102.1 23.06 102.1 53.6 101.79 53.78 101.79 23.25 102.1 23.06"/>
        <polygon class="cls-2" points="104.43 21.7 104.43 52.28 104.12 52.46 104.12 21.89 104.43 21.7"/>
        <polygon class="cls-2" points="106.77 20.33 106.77 50.95 106.47 51.12 106.45 51.13 106.45 20.52 106.47 20.51 106.77 20.33"/>
        <polygon class="cls-2" points="109.1 18.98 109.1 49.63 108.96 49.71 108.9 49.74 108.78 49.81 108.78 19.16 108.9 19.1 108.96 19.06 109.1 18.98"/>
        <polygon class="cls-2" points="111.12 17.8 111.12 48.48 110.8 48.66 110.8 17.99 111.12 17.8"/>
      </g>
      <polygon class="cls-1" points="110.58 14.47 85.02 29.38 84.64 29.59 27.06 63.18 27 63.15 1.29 47.78 85.3 0 110.58 14.47"/>
      <polygon class="cls-1" points="25.65 65.58 0 50.25 0 80.79 .49 81.06 25.74 94.67 25.74 65.64 25.65 65.58"/>
      <polygon class="cls-1" points="24.65 97.7 24.39 97.54 0 84.4 0 113.5 .49 113.77 25.74 127.38 25.74 98.3 24.65 97.7"/>
      <polygon class="cls-1" points="0 117.09 0 146.2 25.74 160.1 25.74 130.99 0 117.09"/>
      <path class="cls-4" d="M114.04,68.6h40.58v11.45h-27.85v6.78h26.83v11.38h-26.83v15.79h-12.74v-45.39ZM198.32,102.61l5.62,11.38h-14.7l-5.42-11.11c-1.63-3.39-2.98-4.34-7.93-4.34h-5.22v15.45h-12.74v-45.39h26.49c11.99,0,18.29,5.01,18.29,13.89,0,7.18-3.59,11.45-12.26,12.53v.68c4.67,1.22,6.17,3.46,7.86,6.91ZM189.38,84.52c0-3.59-1.36-4.47-5.08-4.47h-13.62v9.01h13.62c3.73,0,5.08-.68,5.08-4.54ZM205.97,113.99h40.31v-11.45h-27.57v-5.69h26.56v-11.38h-26.56v-5.42h27.57v-11.45h-40.31v45.39ZM249.88,113.99h12.74v-45.39h-12.74v45.39ZM290.05,98.55h13.96c-.61,3.46-3.32,3.93-12.74,3.93s-11.72-2.17-11.72-11.18,2.64-11.18,12.4-11.18c8.06,0,10.64,1.63,10.64,5.83v.47h14.23v-.47c0-11.25-9.15-18.02-24.53-18.02-16.53,0-26.29,9.21-26.29,23.37s8.33,23.37,22.63,23.37c10.64,0,14.5-5.08,15.72-10.37h.68v9.69h11.86v-24.8h-26.83v9.35ZM354.55,85.47h-21.14v-16.87h-12.74v45.39h12.74v-17.07h21.14v17.07h12.74v-45.39h-12.74v16.87ZM370.33,80.05h16.06v33.94h12.74v-33.94h15.99v-11.45h-44.78v11.45ZM430.9,68.6h-12.74v45.39h38.96v-11.45h-26.22v-33.94ZM496.28,91.1l17.07-22.49h-16.67l-10.37,14.7h-.88l-10.98-14.7h-16.67l17.14,22.22v.88l-17.14,22.29h16.67l10.43-14.77h.88l10.91,14.77h16.67l-17.07-22.02v-.88Z"/>
    </g>
  </g>
</svg>