<?xml version="1.0" encoding="UTF-8"?>
<svg id="Layer_3" data-name="Layer 3" xmlns="http://www.w3.org/2000/svg" viewBox="0 0 240.36 344.84">
  <defs>
    <style>
      .cls-1 {
        fill: #252e60;
      }

      .cls-2 {
        fill: #fff;
      }

      .cls-3 {
        fill: #7797c2;
      }
    </style>
  </defs>
  <g id="Layer_1" data-name="Layer 1">
    <g>
      <g>
        <polygon class="cls-3" points="240.36 37.22 240.36 103.19 240.19 103.29 240.05 103.36 238.86 104.04 238.72 104.11 238.12 104.45 237.45 104.83 236.17 105.57 236.04 105.63 233.78 106.93 233.48 107.1 233.35 107.17 233.11 107.3 230.83 108.6 230.66 108.7 228.77 109.77 228.14 110.13 228.1 110.15 227.97 110.23 225.45 111.66 225.29 111.76 223.76 112.63 223.09 113.01 222.77 113.19 222.6 113.26 220.08 114.68 219.94 114.79 218.75 115.46 218.07 115.84 217.39 116.22 217.26 116.32 214.7 117.75 214.57 117.82 213.73 118.3 213.06 118.69 212.05 119.28 211.88 119.35 209.36 120.78 209.23 120.88 208.72 121.16 208.05 121.54 206.67 122.31 206.54 122.41 203.99 123.84 203.85 123.91 203.71 123.99 203.03 124.37 201.33 125.33 201.16 125.43 198.69 126.84 198.65 126.87 198.48 126.97 198.02 127.23 195.96 128.4 195.79 128.5 193.68 129.7 193.27 129.93 193.1 130.03 193.01 130.08 190.58 131.46 190.45 131.53 188.67 132.55 187.99 132.93 187.89 132.99 187.76 133.06 185.21 134.52 185.07 134.59 183.65 135.39 182.98 135.77 182.55 136.02 182.38 136.12 180.75 137.04 179.87 137.55 179.7 137.62 178.64 138.22 177.97 138.6 177.18 139.04 177.01 139.15 174.49 140.54 174.36 140.61 173.63 141.02 172.95 141.41 171.84 142.04 171.67 142.14 169.15 143.53 168.98 143.64 168.62 143.84 167.94 144.21 166.46 145.03 166.29 145.13 163.77 146.57 163.64 146.63 163.6 146.65 162.93 147.03 161.09 148.06 160.95 148.13 158.59 149.45 158.4 149.56 158.26 149.63 157.92 149.82 155.71 151.05 155.58 151.16 153.58 152.26 153.06 152.55 152.9 152.65 152.89 152.65 150.37 154.05 150.2 154.15 148.56 155.08 147.89 155.46 147.68 155.58 147.51 155.65 144.99 157.08 144.83 157.18 143.55 157.89 142.88 158.26 142.31 158.57 142.17 158.64 139.62 160.07 139.48 160.17 138.54 160.7 137.86 161.07 136.97 161.57 136.8 161.67 134.28 163.06 134.14 163.17 133.52 163.51 132.85 163.89 131.59 164.59 131.45 164.66 128.9 166.09 128.77 166.16 128.51 166.3 127.84 166.68 126.21 167.59 126.08 167.66 123.56 169.09 123.5 169.12 123.39 169.19 122.83 169.5 120.88 170.58 120.7 170.68 118.49 171.92 118.19 172.08 118.02 172.18 117.81 172.3 115.5 173.61 115.33 173.68 113.47 174.73 112.81 175.11 112.8 175.12 112.68 175.18 110.12 176.6 109.99 176.67 108.46 177.53 107.79 177.9 107.43 178.1 107.3 178.2 104.78 179.6 104.61 179.7 103.45 180.35 102.77 180.72 102.1 181.09 101.92 181.2 99.41 182.63 99.27 182.69 98.43 183.16 97.76 183.54 96.72 184.12 96.58 184.19 94.03 185.62 93.9 185.69 93.42 185.96 92.75 186.34 91.38 187.12 91.21 187.22 88.69 188.61 88.52 188.72 88.41 188.78 87.73 189.15 86 190.11 85.87 190.21 83.39 191.6 83.32 191.64 83.18 191.71 82.72 191.97 80.63 193.14 80.49 193.21 78.38 194.39 77.94 194.64 77.8 194.7 77.71 194.76 75.29 196.13 75.12 196.23 73.37 197.2 72.69 197.58 72.6 197.63 72.43 197.73 69.91 199.13 69.74 199.23 68.36 200.01 67.68 200.4 67.23 200.66 67.05 200.73 64.54 202.15 64.4 202.22 63.68 202.62 63.01 203.01 60.83 204.23 60.83 141.94 63.01 140.67 63.68 140.28 64.4 139.86 64.54 139.76 67.05 138.3 67.23 138.19 67.68 137.93 68.36 137.54 69.74 136.73 69.91 136.63 72.43 135.16 72.6 135.06 72.69 135.01 73.37 134.62 75.12 133.6 75.29 133.5 77.71 132.09 77.8 132.04 77.94 131.97 78.38 131.71 80.49 130.47 80.63 130.4 82.72 129.18 83.18 128.91 83.32 128.8 83.39 128.76 85.87 127.34 86 127.24 87.73 126.23 88.41 125.84 88.52 125.78 88.69 125.67 91.21 124.21 91.38 124.11 92.75 123.32 93.42 122.92 93.9 122.65 94.03 122.58 96.58 121.08 96.72 121.01 97.76 120.4 98.43 120.01 99.27 119.52 99.41 119.45 101.92 117.95 102.1 117.88 102.77 117.48 103.45 117.08 104.61 116.39 104.78 116.28 107.3 114.82 107.43 114.76 107.79 114.55 108.46 114.16 109.99 113.26 110.12 113.19 112.68 111.69 112.8 111.63 112.81 111.62 113.47 111.24 115.33 110.16 115.5 110.06 117.81 108.72 118.02 108.6 118.19 108.49 118.49 108.32 120.7 107 120.88 106.93 122.83 105.77 123.39 105.43 123.5 105.39 123.56 105.37 126.08 103.87 126.21 103.8 127.84 102.85 128.51 102.45 128.77 102.3 128.9 102.23 131.45 100.74 131.59 100.67 132.85 99.93 133.52 99.54 134.14 99.17 134.28 99.1 136.8 97.64 136.97 97.54 137.86 97.02 138.54 96.63 139.48 96.08 139.62 95.98 142.17 94.48 142.31 94.41 142.88 94.08 143.55 93.69 144.83 92.94 144.99 92.84 147.51 91.38 147.68 91.28 147.89 91.16 148.56 90.77 150.2 89.82 150.37 89.71 152.89 88.25 152.9 88.25 153.06 88.15 153.58 87.85 155.58 86.69 155.71 86.59 157.92 85.32 158.26 85.12 158.4 85.02 158.59 84.91 160.95 83.56 161.09 83.45 162.93 82.38 163.6 81.98 163.64 81.96 163.77 81.89 166.29 80.43 166.46 80.32 167.94 79.47 168.62 79.08 168.98 78.86 169.15 78.76 171.67 77.3 171.84 77.2 172.95 76.55 173.63 76.16 174.36 75.73 174.49 75.63 177.01 74.17 177.18 74.06 177.97 73.61 178.64 73.22 179.7 72.6 179.87 72.5 182.38 71.04 182.55 70.94 182.98 70.69 183.65 70.3 183.85 70.19 185.07 69.47 185.21 69.4 187.76 67.91 187.89 67.84 187.99 67.78 188.67 67.39 190.45 66.34 190.58 66.24 193.01 64.83 193.1 64.78 193.27 64.67 193.68 64.43 195.79 63.21 195.96 63.11 198.02 61.91 198.48 61.65 198.65 61.55 198.69 61.52 201.16 60.08 201.33 59.98 203.03 58.99 203.71 58.6 203.85 58.52 203.99 58.45 206.54 56.95 206.67 56.88 208.05 56.08 208.72 55.69 209.23 55.39 209.36 55.28 211.88 53.82 212.05 53.72 213.06 53.14 213.73 52.74 214.57 52.26 214.7 52.19 217.26 50.69 217.39 50.62 218.07 50.23 218.75 49.83 219.94 49.13 220.08 49.06 222.6 47.6 222.77 47.49 223.09 47.31 223.76 46.9 225.29 46 225.45 45.93 227.97 44.43 228.1 44.36 228.14 44.33 228.77 43.96 230.66 42.87 230.83 42.77 233.11 41.44 233.35 41.3 233.48 41.23 233.78 41.06 236.04 39.74 236.17 39.67 237.45 38.92 238.12 38.52 238.72 38.17 238.86 38.1 240.05 37.39 240.19 37.32 240.36 37.22"/>
        <polygon class="cls-3" points="179.02 145.81 179.02 208.28 178.64 208.49 177.97 208.88 177.18 209.33 177.01 209.4 174.49 210.86 174.36 210.93 173.63 211.34 172.95 211.72 171.84 212.36 171.67 212.46 169.15 213.89 168.98 213.96 168.62 214.16 167.94 214.55 166.46 215.39 166.29 215.49 163.77 216.92 163.64 217.02 163.6 217.04 162.93 217.42 161.09 218.45 160.95 218.52 158.59 219.87 158.4 219.98 158.26 220.05 157.92 220.25 155.71 221.51 155.58 221.58 153.58 222.71 153.06 223.01 152.9 223.11 152.89 223.11 150.37 224.54 150.2 224.64 148.56 225.57 147.89 225.95 147.68 226.07 147.51 226.17 144.99 227.6 144.83 227.7 143.55 228.43 142.88 228.81 142.31 229.13 142.17 229.2 139.62 230.63 139.48 230.73 138.54 231.27 137.86 231.65 136.97 232.16 136.8 232.26 134.28 233.69 134.14 233.76 133.52 234.1 132.85 234.48 131.59 235.19 131.45 235.29 128.9 236.72 128.77 236.82 128.51 236.96 127.84 237.34 126.21 238.25 126.08 238.32 123.56 239.75 123.5 239.79 123.39 239.85 122.83 240.17 120.88 241.28 120.7 241.38 118.49 242.64 118.49 242.64 118.19 242.81 118.02 242.91 117.81 243.03 115.5 244.31 115.33 244.37 113.47 245.4 112.81 245.77 112.8 245.77 112.68 245.87 110.12 247.27 109.99 247.33 108.46 248.19 107.79 248.57 107.43 248.76 107.3 248.83 104.78 250.22 104.61 250.33 103.45 250.97 102.77 251.35 102.1 251.72 101.92 251.82 99.41 253.18 99.27 253.29 98.43 253.75 97.76 254.12 96.72 254.68 96.58 254.75 94.03 256.18 93.9 256.25 93.42 256.51 92.75 256.88 91.38 257.64 91.21 257.74 88.69 259.14 88.52 259.24 88.41 259.3 87.73 259.67 86 260.6 85.87 260.7 83.39 262.06 83.32 262.1 83.18 262.17 82.72 262.42 80.63 263.59 80.49 263.67 78.38 264.85 77.94 265.09 77.8 265.16 77.71 265.21 75.29 266.55 75.12 266.66 73.37 267.63 72.69 268 72.6 268.05 72.43 268.12 69.91 269.52 69.74 269.62 68.36 270.38 67.68 270.76 67.23 271.01 67.05 271.12 64.54 272.51 64.4 272.58 63.68 272.97 63.01 273.35 60.83 274.55 60.83 212.02 63.01 210.8 63.68 210.42 64.4 210.01 64.54 209.94 67.05 208.52 67.23 208.45 67.68 208.19 68.36 207.8 69.74 207.02 69.91 206.92 72.43 205.52 72.6 205.42 72.69 205.37 73.37 205 75.12 204.03 75.29 203.92 77.71 202.55 77.8 202.49 77.94 202.43 78.38 202.18 80.49 201 80.63 200.93 82.72 199.76 83.18 199.5 83.32 199.43 83.39 199.39 85.87 198 86 197.9 87.73 196.94 88.41 196.57 88.52 196.51 88.69 196.4 91.21 195.01 91.38 194.91 92.75 194.15 93.42 193.77 93.9 193.51 94.03 193.41 96.58 191.98 96.72 191.91 97.76 191.33 98.43 190.95 99.27 190.48 99.41 190.42 101.92 188.99 102.1 188.92 102.77 188.54 103.45 188.15 104.61 187.49 104.78 187.39 107.3 185.99 107.43 185.93 107.79 185.73 108.46 185.35 109.99 184.5 110.12 184.39 112.68 182.97 112.8 182.91 112.81 182.9 113.47 182.53 115.33 181.5 115.5 181.4 117.81 180.09 118.02 179.97 118.19 179.9 118.49 179.74 120.7 178.48 120.88 178.37 122.83 177.29 123.39 176.98 123.5 176.91 123.56 176.88 126.08 175.48 126.21 175.38 127.84 174.47 128.51 174.09 128.77 173.95 128.9 173.88 131.45 172.45 131.59 172.38 132.85 171.68 133.52 171.3 134.14 170.96 134.28 170.89 136.8 169.46 136.97 169.36 137.86 168.86 138.54 168.49 139.48 167.96 139.62 167.89 142.17 166.47 142.31 166.36 142.88 166.05 143.55 165.68 144.83 164.97 144.99 164.87 147.51 163.47 147.68 163.37 147.89 163.25 148.56 162.87 150.2 161.94 150.37 161.87 152.89 160.44 152.9 160.44 153.06 160.34 153.58 160.05 155.58 158.95 155.71 158.88 157.92 157.65 158.26 157.45 158.4 157.35 158.59 157.24 160.95 155.92 161.09 155.85 162.93 154.82 163.6 154.44 163.64 154.42 163.77 154.36 166.29 152.96 166.46 152.86 167.94 152.02 168.62 151.63 168.98 151.43 169.15 151.33 171.67 149.93 171.84 149.83 172.95 149.21 173.63 148.84 174.36 148.43 174.49 148.37 177.01 146.94 177.18 146.83 177.97 146.4 178.64 146.02 179.02 145.81"/>
        <polygon class="cls-3" points="116.72 251.42 116.72 313.91 115.5 314.59 115.33 314.7 113.47 315.72 112.81 316.09 112.8 316.1 112.68 316.16 110.12 317.55 109.99 317.65 108.46 318.49 107.79 318.86 107.43 319.05 107.3 319.12 104.78 320.51 104.61 320.61 103.45 321.26 102.77 321.63 102.1 322.01 101.92 322.11 99.41 323.51 99.27 323.57 98.43 324.03 97.76 324.4 96.72 324.97 96.58 325.07 94.03 326.47 93.9 326.53 93.42 326.8 92.75 327.17 91.38 327.93 91.21 328.03 88.69 329.43 88.52 329.53 88.41 329.59 87.73 329.97 86 330.92 85.87 330.99 83.39 332.34 83.32 332.38 83.18 332.49 82.72 332.74 80.63 333.88 80.49 333.95 78.38 335.13 77.94 335.38 77.8 335.45 77.71 335.5 75.29 336.84 75.12 336.94 73.37 337.91 72.69 338.29 72.6 338.34 72.43 338.41 69.91 339.8 69.74 339.91 68.36 340.67 67.68 341.05 67.23 341.3 67.05 341.4 64.54 342.79 64.4 342.87 63.68 343.26 63.01 343.63 60.83 344.84 60.83 282.31 63.01 281.1 63.68 280.73 64.4 280.33 64.54 280.27 67.05 278.87 67.23 278.77 67.68 278.51 68.36 278.14 69.74 277.37 69.91 277.27 72.43 275.91 72.6 275.81 72.69 275.76 73.37 275.38 75.12 274.41 75.29 274.31 77.71 272.97 77.8 272.92 77.94 272.85 78.38 272.61 80.49 271.46 80.63 271.35 82.72 270.21 83.18 269.96 83.32 269.89 83.39 269.85 85.87 268.46 86 268.39 87.73 267.43 88.41 267.06 88.52 267 88.69 266.89 91.21 265.5 91.38 265.43 92.75 264.67 93.42 264.3 93.9 264.04 94.03 263.97 96.58 262.54 96.72 262.47 97.76 261.91 98.43 261.54 99.27 261.08 99.41 260.97 101.92 259.58 102.1 259.51 102.77 259.14 103.45 258.76 104.61 258.12 104.78 258.02 107.3 256.62 107.43 256.55 107.79 256.36 108.46 255.98 109.99 255.12 110.12 255.06 112.68 253.66 112.8 253.6 112.81 253.6 113.47 253.23 115.33 252.2 115.5 252.1 116.72 251.42"/>
      </g>
      <g>
        <g>
          <polygon class="cls-2" points="64.36 140.01 64.36 202.36 63.69 202.74 63.69 140.41 64.36 140.01"/>
          <polygon class="cls-2" points="64.36 210.16 64.36 272.71 63.69 273.09 63.69 210.53 64.36 210.16"/>
          <polygon class="cls-2" points="63.69 280.84 64.36 280.47 64.36 343 63.69 343.37 63.69 280.84"/>
        </g>
        <g>
          <polygon class="cls-2" points="69.04 137.27 69.04 199.75 68.36 200.14 68.36 137.66 69.04 137.27"/>
          <polygon class="cls-2" points="69.04 207.54 69.04 270.12 68.36 270.5 68.36 207.93 69.04 207.54"/>
          <polygon class="cls-2" points="68.36 278.25 69.04 277.88 69.04 340.41 68.36 340.78 68.36 278.25"/>
        </g>
        <g>
          <polygon class="cls-2" points="74.05 134.36 74.05 196.94 73.37 197.31 73.37 134.75 74.05 134.36"/>
          <polygon class="cls-2" points="74.05 204.73 74.05 267.36 73.37 267.74 73.37 205.1 74.05 204.73"/>
          <polygon class="cls-2" points="73.37 275.49 74.05 275.12 74.05 337.65 73.37 338.02 73.37 275.49"/>
        </g>
        <g>
          <polygon class="cls-2" points="79.06 131.45 79.06 194.13 78.62 194.37 78.48 194.44 78.39 194.49 78.39 131.83 78.48 131.77 78.62 131.71 79.06 131.45"/>
          <polygon class="cls-2" points="79.06 201.92 79.06 264.58 78.62 264.83 78.48 264.9 78.39 264.95 78.39 202.28 78.48 202.23 78.62 202.16 79.06 201.92"/>
          <polygon class="cls-2" points="78.62 272.59 79.06 272.35 79.06 334.87 78.62 335.12 78.48 335.18 78.39 335.24 78.39 272.71 78.48 272.65 78.62 272.59"/>
        </g>
        <g>
          <polygon class="cls-2" points="84.07 128.5 84.07 191.34 84 191.38 83.86 191.45 83.4 191.7 83.4 128.91 83.86 128.64 84 128.54 84.07 128.5"/>
          <polygon class="cls-2" points="84.07 199.13 84.07 261.79 84 261.84 83.86 261.9 83.4 262.16 83.4 199.49 83.86 199.24 84 199.17 84.07 199.13"/>
          <polygon class="cls-2" points="84 269.63 84.07 269.58 84.07 332.08 84 332.12 83.86 332.23 83.4 332.48 83.4 269.94 83.86 269.69 84 269.63"/>
        </g>
        <g>
          <polygon class="cls-2" points="89.09 125.58 89.09 188.52 88.41 188.89 88.41 125.97 89.09 125.58"/>
          <polygon class="cls-2" points="89.09 196.31 89.09 259.04 88.41 259.4 88.41 196.68 89.09 196.31"/>
          <polygon class="cls-2" points="88.41 267.17 89.09 266.8 89.09 329.33 88.41 329.7 88.41 267.17"/>
        </g>
        <g>
          <polygon class="cls-2" points="94.1 122.66 94.1 185.69 93.43 186.08 93.43 123.05 94.1 122.66"/>
          <polygon class="cls-2" points="94.1 193.51 94.1 256.25 93.43 256.62 93.43 193.88 94.1 193.51"/>
          <polygon class="cls-2" points="93.43 264.41 94.1 264.04 94.1 326.53 93.43 326.91 93.43 264.41"/>
        </g>
        <g>
          <polygon class="cls-2" points="99.11 119.75 99.11 182.9 98.44 183.28 98.44 120.14 99.11 119.75"/>
          <polygon class="cls-2" points="99.11 190.69 99.11 253.48 98.44 253.85 98.44 191.07 99.11 190.69"/>
          <polygon class="cls-2" points="98.44 261.64 99.11 261.27 99.11 323.77 98.44 324.14 98.44 261.64"/>
        </g>
        <g>
          <polygon class="cls-2" points="104.13 116.82 104.13 180.08 103.45 180.46 103.45 117.22 104.13 116.82"/>
          <polygon class="cls-2" points="104.13 187.89 104.13 250.71 103.45 251.09 103.45 188.27 104.13 187.89"/>
          <polygon class="cls-2" points="103.45 258.88 104.13 258.5 104.13 321 103.45 321.37 103.45 258.88"/>
        </g>
        <g>
          <polygon class="cls-2" points="109.14 113.89 109.14 177.26 108.47 177.64 108.47 114.29 109.14 113.89"/>
          <polygon class="cls-2" points="109.14 185.09 109.14 247.93 108.47 248.3 108.47 185.47 109.14 185.09"/>
          <polygon class="cls-2" points="108.47 256.09 109.14 255.72 109.14 318.23 108.47 318.6 108.47 256.09"/>
        </g>
        <g>
          <polygon class="cls-2" points="114.15 110.98 114.15 174.47 113.49 174.85 113.48 174.85 113.48 111.37 113.49 111.36 114.15 110.98"/>
          <polygon class="cls-2" points="114.15 182.27 114.15 245.14 113.49 245.51 113.48 245.51 113.48 182.64 113.49 182.64 114.15 182.27"/>
          <polygon class="cls-2" points="113.49 253.33 114.15 252.97 114.15 315.46 113.49 315.83 113.48 315.83 113.48 253.34 113.49 253.33"/>
        </g>
        <g>
          <polygon class="cls-2" points="119.17 108.06 119.17 171.65 118.87 171.82 118.7 171.92 118.49 172.04 118.49 108.45 118.7 108.33 118.87 108.23 119.17 108.06"/>
          <polygon class="cls-2" points="118.87 179.64 119.17 179.47 119.17 242.38 118.87 242.54 118.7 242.65 118.49 242.76 118.49 179.83 118.7 179.71 118.87 179.64"/>
        </g>
        <g>
          <polygon class="cls-2" points="124.18 105.13 124.18 168.86 124.07 168.93 123.51 169.24 123.51 105.51 124.07 105.17 124.18 105.13"/>
          <polygon class="cls-2" points="124.07 176.72 124.18 176.65 124.18 239.52 124.07 239.59 123.51 239.91 123.51 177.03 124.07 176.72"/>
        </g>
        <g>
          <polygon class="cls-2" points="129.19 102.19 129.19 166.04 128.52 166.42 128.52 102.58 129.19 102.19"/>
          <polygon class="cls-2" points="128.52 174.21 129.19 173.83 129.19 236.7 128.52 237.08 128.52 174.21"/>
        </g>
        <g>
          <polygon class="cls-2" points="134.2 99.27 134.2 163.25 133.53 163.63 133.53 99.67 134.2 99.27"/>
          <polygon class="cls-2" points="133.53 171.42 134.2 171.04 134.2 233.84 133.53 234.22 133.53 171.42"/>
        </g>
        <g>
          <polygon class="cls-2" points="139.22 96.36 139.22 160.43 138.54 160.81 138.54 96.75 139.22 96.36"/>
          <polygon class="cls-2" points="138.54 168.6 139.22 168.22 139.22 231.01 138.54 231.39 138.54 168.6"/>
        </g>
        <g>
          <polygon class="cls-2" points="144.23 93.42 144.23 157.62 143.56 157.99 143.56 93.82 144.23 93.42"/>
          <polygon class="cls-2" points="143.56 165.78 144.23 165.41 144.23 228.16 143.56 228.54 143.56 165.78"/>
        </g>
        <g>
          <polygon class="cls-2" points="149.24 90.51 149.24 154.81 148.57 155.2 148.57 90.9 149.24 90.51"/>
          <polygon class="cls-2" points="148.57 162.99 149.24 162.61 149.24 225.3 148.57 225.69 148.57 162.99"/>
        </g>
        <g>
          <polygon class="cls-2" points="154.26 87.59 154.26 152 153.74 152.29 153.58 152.39 153.58 87.98 153.74 87.89 154.26 87.59"/>
          <polygon class="cls-2" points="153.74 160.08 154.26 159.79 154.26 222.45 153.74 222.74 153.58 222.84 153.58 160.18 153.74 160.08"/>
        </g>
        <g>
          <polygon class="cls-2" points="159.27 84.65 159.27 149.19 159.08 149.29 158.94 149.36 158.6 149.56 158.6 85.06 158.94 84.86 159.08 84.76 159.27 84.65"/>
          <polygon class="cls-2" points="159.08 157.09 159.27 156.98 159.27 219.61 159.08 219.72 158.94 219.78 158.6 219.98 158.6 157.38 158.94 157.19 159.08 157.09"/>
        </g>
        <g>
          <polygon class="cls-2" points="164.28 81.72 164.28 146.39 163.61 146.77 163.61 82.11 164.28 81.72"/>
          <polygon class="cls-2" points="163.61 154.56 164.28 154.18 164.28 216.78 163.61 217.16 163.61 154.56"/>
        </g>
        <g>
          <polygon class="cls-2" points="169.3 78.81 169.3 143.58 168.62 143.95 168.62 79.2 169.3 78.81"/>
          <polygon class="cls-2" points="168.62 151.76 169.3 151.37 169.3 213.9 168.62 214.28 168.62 151.76"/>
        </g>
        <g>
          <polygon class="cls-2" points="174.31 75.89 174.31 140.76 173.63 141.14 173.63 76.28 174.31 75.89"/>
          <polygon class="cls-2" points="173.63 148.95 174.31 148.58 174.31 211.08 173.63 211.46 173.63 148.95"/>
        </g>
        <g>
          <polygon class="cls-2" points="179.32 72.95 179.32 137.95 178.65 138.33 178.65 73.34 179.32 72.95"/>
          <polygon class="cls-2" points="178.65 146.13 179.32 145.76 179.32 208.23 178.65 208.62 178.65 146.13"/>
        </g>
        <polygon class="cls-2" points="184.33 70.04 184.33 135.13 183.66 135.51 183.66 70.43 184.33 70.04"/>
        <polygon class="cls-2" points="189.35 67.13 189.35 132.29 188.67 132.67 188.67 67.52 189.35 67.13"/>
        <polygon class="cls-2" points="194.36 64.17 194.36 129.43 193.95 129.67 193.78 129.77 193.69 129.82 193.69 64.57 193.78 64.52 193.95 64.41 194.36 64.17"/>
        <polygon class="cls-2" points="199.37 61.26 199.37 126.58 199.33 126.6 199.16 126.7 198.7 126.96 198.7 61.65 199.16 61.38 199.33 61.28 199.37 61.26"/>
        <polygon class="cls-2" points="204.39 58.34 204.39 123.72 203.71 124.11 203.71 58.73 204.39 58.34"/>
        <polygon class="cls-2" points="209.4 55.42 209.4 120.9 208.73 121.28 208.73 55.82 209.4 55.42"/>
        <polygon class="cls-2" points="214.41 52.48 214.41 118.04 213.74 118.43 213.74 52.87 214.41 52.48"/>
        <polygon class="cls-2" points="219.43 49.57 219.43 115.2 218.75 115.57 218.75 49.96 219.43 49.57"/>
        <polygon class="cls-2" points="224.44 46.64 224.44 112.36 223.77 112.74 223.77 47.04 224.44 46.64"/>
        <polygon class="cls-2" points="229.45 43.7 229.45 109.51 228.82 109.87 228.78 109.89 228.78 44.1 228.82 44.07 229.45 43.7"/>
        <polygon class="cls-2" points="234.46 40.8 234.46 106.67 234.16 106.84 234.03 106.9 233.79 107.04 233.79 41.18 234.03 41.04 234.16 40.97 234.46 40.8"/>
        <polygon class="cls-2" points="238.8 38.26 238.8 104.19 238.13 104.57 238.13 38.66 238.8 38.26"/>
      </g>
      <polygon class="cls-1" points="237.66 31.1 182.71 63.14 181.9 63.59 58.16 135.78 58.03 135.71 2.78 102.68 183.33 0 237.66 31.1"/>
      <polygon class="cls-1" points="55.11 140.94 0 108 0 173.63 1.05 174.21 55.32 203.47 55.32 141.07 55.11 140.94"/>
      <polygon class="cls-1" points="52.97 209.96 52.43 209.62 0 181.39 0 243.92 1.05 244.5 55.32 273.75 55.32 211.26 52.97 209.96"/>
      <polygon class="cls-1" points="0 251.64 0 314.2 55.32 344.07 55.32 281.51 0 251.64"/>
    </g>
  </g>
</svg>