<?xml version="1.0" encoding="UTF-8"?>
<svg id="Layer_3" data-name="Layer 3" xmlns="http://www.w3.org/2000/svg" viewBox="0 0 515.99 173.23">
  <defs>
    <style>
      .cls-1 {
        fill: #fff;
      }

      .cls-2 {
        fill: none;
      }
    </style>
  </defs>
  <g id="Layer_1" data-name="Layer 1">
    <g>
      <g>
        <g>
          <path class="cls-1" d="M121.13,117.02v-44.88h40.13v11.32h-27.53v6.7h26.53v11.25h-26.53v15.61h-12.59Z"/>
          <path class="cls-1" d="M164.54,117.02v-44.88h26.19c11.86,0,18.09,4.96,18.09,13.73,0,7.1-3.55,11.32-12.13,12.39v.67c4.62,1.21,6.1,3.42,7.77,6.83l5.56,11.25h-14.54l-5.36-10.99c-1.61-3.35-2.95-4.29-7.84-4.29h-5.16v15.27h-12.59ZM177.14,92.36h13.46c3.68,0,5.02-.67,5.02-4.49,0-3.55-1.34-4.42-5.02-4.42h-13.46v8.91Z"/>
          <path class="cls-1" d="M212.04,117.02v-44.88h39.86v11.32h-27.26v5.36h26.26v11.25h-26.26v5.63h27.26v11.32h-39.86Z"/>
          <path class="cls-1" d="M255.45,117.02v-44.88h12.59v44.88h-12.59Z"/>
          <path class="cls-1" d="M271.4,94.57c0-14,9.65-23.11,25.99-23.11,15.21,0,24.25,6.7,24.25,17.82v.47h-14.07v-.47c0-4.15-2.55-5.76-10.52-5.76-9.65,0-12.26,2.14-12.26,11.05s2.48,11.05,11.59,11.05,11.99-.47,12.59-3.89h-13.8v-9.24h26.53v24.52h-11.72v-9.58h-.67c-1.21,5.22-5.02,10.25-15.54,10.25-14.13,0-22.38-9.11-22.38-23.11Z"/>
          <path class="cls-1" d="M325.46,117.02v-44.88h12.59v16.68h20.9v-16.68h12.59v44.88h-12.59v-16.88h-20.9v16.88h-12.59Z"/>
          <path class="cls-1" d="M390.44,117.02v-33.56h-15.88v-11.32h44.28v11.32h-15.81v33.56h-12.59Z"/>
          <path class="cls-1" d="M421.86,117.02v-44.88h12.59v33.56h25.92v11.32h-38.52Z"/>
          <path class="cls-1" d="M461.06,117.02l16.95-22.04v-.87l-16.95-21.97h16.48l10.85,14.54h.87l10.25-14.54h16.48l-16.88,22.24v.87l16.88,21.77h-16.48l-10.79-14.6h-.87l-10.32,14.6h-16.48Z"/>
        </g>
        <g>
          <path class="cls-2" d="M121.13,117.02v-44.88h40.13v11.32h-27.53v6.7h26.53v11.25h-26.53v15.61h-12.59Z"/>
          <path class="cls-2" d="M164.54,117.02v-44.88h26.19c11.86,0,18.09,4.96,18.09,13.73,0,7.1-3.55,11.32-12.13,12.39v.67c4.62,1.21,6.1,3.42,7.77,6.83l5.56,11.25h-14.54l-5.36-10.99c-1.61-3.35-2.95-4.29-7.84-4.29h-5.16v15.27h-12.59ZM177.14,92.36h13.46c3.68,0,5.02-.67,5.02-4.49,0-3.55-1.34-4.42-5.02-4.42h-13.46v8.91Z"/>
          <path class="cls-2" d="M212.04,117.02v-44.88h39.86v11.32h-27.26v5.36h26.26v11.25h-26.26v5.63h27.26v11.32h-39.86Z"/>
          <path class="cls-2" d="M255.45,117.02v-44.88h12.59v44.88h-12.59Z"/>
          <path class="cls-2" d="M271.4,94.57c0-14,9.65-23.11,25.99-23.11,15.21,0,24.25,6.7,24.25,17.82v.47h-14.07v-.47c0-4.15-2.55-5.76-10.52-5.76-9.65,0-12.26,2.14-12.26,11.05s2.48,11.05,11.59,11.05,11.99-.47,12.59-3.89h-13.8v-9.24h26.53v24.52h-11.72v-9.58h-.67c-1.21,5.22-5.02,10.25-15.54,10.25-14.13,0-22.38-9.11-22.38-23.11Z"/>
          <path class="cls-2" d="M325.46,117.02v-44.88h12.59v16.68h20.9v-16.68h12.59v44.88h-12.59v-16.88h-20.9v16.88h-12.59Z"/>
          <path class="cls-2" d="M390.44,117.02v-33.56h-15.88v-11.32h44.28v11.32h-15.81v33.56h-12.59Z"/>
          <path class="cls-2" d="M421.86,117.02v-44.88h12.59v33.56h25.92v11.32h-38.52Z"/>
          <path class="cls-2" d="M461.06,117.02l16.95-22.04v-.87l-16.95-21.97h16.48l10.85,14.54h.87l10.25-14.54h16.48l-16.88,22.24v.87l16.88,21.77h-16.48l-10.79-14.6h-.87l-10.32,14.6h-16.48Z"/>
        </g>
      </g>
      <g>
        <polygon class="cls-1" points="120.66 18.75 120.59 18.78 119.99 19.14 119.93 19.18 119.62 19.35 119.29 19.55 118.64 19.93 118.58 19.96 117.44 20.63 117.29 20.71 117.23 20.75 117.11 20.82 115.96 21.48 115.88 21.53 114.93 22.09 114.61 22.27 114.59 22.28 114.53 22.32 113.26 23.07 113.18 23.11 112.41 23.56 112.07 23.76 111.91 23.86 111.82 23.91 110.56 24.65 110.49 24.68 109.89 25.03 109.55 25.23 109.21 25.43 109.14 25.47 107.86 26.22 107.79 26.25 107.37 26.5 107.03 26.69 106.53 26.99 106.44 27.04 105.18 27.77 105.11 27.83 104.85 27.97 104.51 28.17 103.83 28.58 103.76 28.61 102.48 29.36 102.41 29.4 102.33 29.44 102 29.64 101.14 30.13 101.06 30.18 99.82 30.9 99.79 30.92 99.71 30.97 99.48 31.1 98.44 31.7 98.36 31.76 97.3 32.37 97.09 32.49 97.01 32.54 96.96 32.57 95.74 33.28 95.67 33.33 94.78 33.85 94.44 34.05 94.39 34.08 94.32 34.11 93.04 34.87 92.97 34.9 92.36 35.26 92.26 35.32 91.92 35.51 91.71 35.64 91.62 35.69 90.36 36.42 90.27 36.47 89.74 36.78 89.4 36.98 89.01 37.21 88.92 37.26 87.66 37.99 87.59 38.04 87.22 38.26 86.89 38.45 86.32 38.78 86.24 38.83 84.97 39.57 84.89 39.62 84.71 39.72 84.37 39.92 83.62 40.35 83.54 40.4 82.27 41.14 82.21 41.17 82.19 41.18 81.85 41.38 80.92 41.92 80.86 41.98 79.67 42.65 79.57 42.71 79.51 42.76 79.33 42.86 78.22 43.5 78.16 43.55 77.15 44.13 76.89 44.28 76.81 44.33 76.81 44.34 75.54 45.07 75.46 45.12 74.63 45.6 74.29 45.8 74.19 45.86 74.11 45.91 72.84 46.64 72.76 46.69 72.11 47.06 71.78 47.26 71.49 47.43 71.42 47.46 70.14 48.21 70.07 48.27 69.6 48.54 69.26 48.74 68.81 49 68.72 49.05 67.46 49.79 67.39 49.82 67.08 50 66.74 50.2 66.11 50.57 66.04 50.61 64.76 51.36 64.69 51.39 64.56 51.47 64.22 51.67 63.41 52.14 63.34 52.18 62.07 52.93 62.04 52.94 61.99 52.97 61.7 53.13 60.72 53.72 60.64 53.75 59.52 54.42 59.37 54.5 59.29 54.55 59.18 54.62 58.02 55.29 57.94 55.34 57 55.88 56.67 56.08 56.67 56.08 56.6 56.11 55.32 56.86 55.25 56.9 54.49 57.35 54.15 57.55 53.97 57.65 53.9 57.68 52.64 58.42 52.55 58.47 51.97 58.82 51.63 59.02 51.29 59.22 51.2 59.25 49.94 60.01 49.87 60.04 49.45 60.29 49.11 60.49 48.59 60.79 48.52 60.83 47.24 61.58 47.17 61.61 46.93 61.75 46.59 61.95 45.91 62.35 45.82 62.4 44.56 63.13 44.47 63.18 44.41 63.22 44.07 63.41 43.21 63.92 43.14 63.97 41.89 64.68 41.86 64.71 41.79 64.76 41.56 64.89 40.51 65.51 40.44 65.54 39.38 66.17 39.16 66.3 39.09 66.33 39.04 66.36 37.82 67.07 37.74 67.12 36.86 67.63 36.52 67.82 36.47 67.85 36.39 67.9 35.12 68.64 35.04 68.69 34.34 69.09 34 69.29 33.77 69.42 33.69 69.48 32.42 70.21 32.35 70.26 31.99 70.47 31.65 70.67 30.56 71.3 30.56 102.6 31.65 101.98 31.99 101.79 31.99 101.79 31.99 70.54 32.33 70.34 32.33 101.6 32.35 101.59 32.42 101.55 33.69 100.84 33.77 100.8 34 100.67 34.34 100.48 34.34 100.48 34.34 69.16 34.68 68.96 34.68 100.29 35.04 100.09 35.12 100.03 36.39 99.33 36.47 99.28 36.52 99.25 36.86 99.07 36.86 99.07 36.86 67.69 37.2 67.5 37.2 98.88 37.74 98.58 37.82 98.53 39.04 97.84 39.09 97.81 39.16 97.78 39.38 97.65 39.38 97.65 39.38 66.23 39.43 66.2 39.5 66.16 39.72 66.04 39.72 97.46 40.44 97.06 40.51 97.02 41.56 96.44 41.79 96.31 41.86 96.27 41.89 96.25 41.9 96.25 41.9 64.76 42.13 64.63 42.2 64.57 42.24 64.55 42.24 96.06 43.14 95.55 43.21 95.5 44.07 95.02 44.41 94.84 44.42 94.83 44.42 63.28 44.75 63.09 44.75 94.64 45.82 94.05 45.91 94 46.59 93.61 46.93 93.42 46.93 93.42 46.93 61.82 47.27 61.62 47.27 93.23 48.52 92.53 48.59 92.5 49.11 92.2 49.45 92.01 49.45 92.01 49.45 60.35 49.79 60.16 49.79 91.82 49.87 91.78 49.94 91.74 51.2 91.03 51.29 90.97 51.63 90.79 51.97 90.6 51.97 90.6 51.97 58.89 52.31 58.69 52.31 90.41 52.55 90.27 52.64 90.22 53.9 89.52 53.97 89.47 54.15 89.37 54.49 89.18 54.49 89.18 54.49 57.41 54.83 57.22 54.83 88.99 55.25 88.75 55.32 88.72 56.6 88 56.67 87.97 56.67 87.97 57 87.78 57.01 87.78 57.01 55.95 57.01 55.94 57.35 55.75 57.35 87.58 57.94 87.25 58.02 87.22 59.18 86.56 59.29 86.5 59.37 86.45 59.52 86.36 59.53 86.36 59.53 54.48 59.63 54.42 59.72 54.37 59.86 54.28 59.86 86.17 60.64 85.74 60.72 85.69 61.7 85.15 61.99 84.99 62.04 84.96 62.05 84.96 62.05 53 62.33 52.83 62.38 52.81 62.38 84.77 63.34 84.22 63.41 84.19 64.22 83.73 64.56 83.55 64.56 83.54 64.56 51.53 64.9 51.34 64.9 83.36 66.04 82.72 66.11 82.69 66.74 82.33 67.08 82.14 67.08 82.14 67.08 50.07 67.42 49.87 67.42 81.95 67.46 81.92 68.72 81.22 68.81 81.16 69.26 80.92 69.6 80.73 69.6 80.73 69.6 48.61 69.94 48.41 69.94 80.54 70.07 80.46 70.14 80.41 71.42 79.69 71.49 79.66 71.78 79.5 72.11 79.32 72.12 79.31 72.12 47.13 72.46 46.93 72.46 79.13 72.76 78.96 72.84 78.91 74.11 78.19 74.19 78.16 74.29 78.1 74.63 77.9 74.64 77.9 74.64 45.66 74.97 45.47 74.97 77.71 75.46 77.44 75.54 77.39 76.81 76.69 76.81 76.68 76.89 76.64 77.15 76.49 77.15 76.49 77.15 44.2 77.23 44.15 77.49 44 77.49 76.3 78.16 75.94 78.22 75.88 79.33 75.27 79.51 75.17 79.57 75.13 79.67 75.08 79.67 75.08 79.67 42.73 79.85 42.63 79.92 42.58 80.01 42.52 80.01 74.89 80.86 74.41 80.92 74.38 81.85 73.86 82.19 73.67 82.19 73.67 82.19 41.25 82.53 41.05 82.53 73.48 83.54 72.91 83.62 72.86 84.37 72.45 84.71 72.26 84.71 72.26 84.71 39.79 85.05 39.59 85.05 72.07 86.24 71.41 86.32 71.36 86.89 71.04 87.22 70.84 87.23 70.84 87.23 38.32 87.57 38.13 87.57 70.65 87.59 70.64 87.66 70.6 88.92 69.9 89.01 69.85 89.4 69.63 89.74 69.43 89.75 69.43 89.75 36.84 90.08 36.65 90.08 69.24 90.27 69.13 90.36 69.1 90.8 68.84 91.62 68.38 91.71 68.33 91.92 68.21 92.26 68.02 92.26 68.02 92.26 35.38 92.6 35.18 92.6 67.82 92.97 67.61 93.04 67.58 94.32 66.84 94.39 66.81 94.44 66.78 94.78 66.59 94.78 66.59 94.78 33.92 95.12 33.72 95.12 66.39 95.67 66.07 95.74 66.04 96.96 65.35 97.01 65.32 97.09 65.27 97.3 65.15 97.3 65.15 97.3 32.44 97.35 32.41 97.43 32.36 97.64 32.24 97.64 64.96 98.36 64.55 98.44 64.5 99.48 63.91 99.71 63.78 99.79 63.73 99.82 63.72 99.82 63.72 99.82 30.97 100.05 30.84 100.13 30.79 100.16 30.77 100.16 63.53 101.06 63.01 101.14 62.96 102 62.48 102.33 62.29 102.34 62.28 102.34 29.5 102.68 29.31 102.68 62.1 103.76 61.49 103.83 61.44 104.51 61.06 104.85 60.87 104.86 60.86 104.86 28.04 105.19 27.84 105.19 60.66 106.44 59.95 106.53 59.92 107.03 59.63 107.37 59.43 107.38 59.43 107.38 26.56 107.71 26.36 107.71 59.23 107.79 59.19 107.86 59.15 109.14 58.43 109.21 58.38 109.55 58.19 109.89 58 109.89 58 109.89 25.1 110.23 24.9 110.23 57.81 110.49 57.67 110.56 57.61 111.82 56.9 111.91 56.86 112.07 56.77 112.41 56.58 112.41 56.58 112.41 23.63 112.75 23.43 112.75 56.39 113.18 56.14 113.26 56.09 114.53 55.37 114.59 55.34 114.61 55.32 114.93 55.14 114.93 55.14 114.93 22.15 114.95 22.14 115.27 21.95 115.27 54.95 115.88 54.61 115.96 54.55 117.11 53.9 117.23 53.84 117.29 53.8 117.44 53.72 117.45 53.71 117.45 20.69 117.57 20.62 117.64 20.58 117.79 20.49 117.79 53.52 118.58 53.07 118.64 53.03 119.29 52.66 119.62 52.47 119.63 52.47 119.63 19.42 119.97 19.22 119.97 52.28 119.99 52.27 120.59 51.92 120.66 51.89 120.75 51.84 120.75 18.7 120.66 18.75"/>
        <polygon class="cls-1" points="119.39 15.62 91.79 31.72 91.38 31.94 29.22 68.21 29.15 68.18 1.4 51.58 92.1 0 119.39 15.62"/>
        <polygon class="cls-1" points="27.69 70.8 0 54.26 0 87.23 .53 87.52 27.79 102.21 27.79 70.87 27.69 70.8"/>
        <polygon class="cls-1" points="26.61 105.48 26.34 105.31 0 91.12 0 122.53 .53 122.83 27.79 137.52 27.79 106.13 26.61 105.48"/>
        <polygon class="cls-1" points="0 126.41 0 157.84 27.79 172.85 27.79 141.42 0 126.41"/>
        <polygon class="cls-1" points="89.4 73.54 89.01 73.76 88.92 73.82 87.66 74.53 87.59 74.57 87.22 74.77 86.89 74.96 86.32 75.27 86.24 75.32 84.97 76.02 84.89 76.07 84.71 76.18 84.37 76.37 83.62 76.79 83.54 76.84 82.27 77.54 82.21 77.58 82.19 77.59 81.85 77.78 80.92 78.29 80.86 78.33 79.67 78.99 79.57 79.05 79.51 79.1 79.33 79.2 78.22 79.81 78.16 79.85 77.15 80.41 76.89 80.55 76.81 80.6 76.81 80.6 75.54 81.32 75.46 81.35 74.63 81.82 74.29 82.01 74.19 82.07 74.11 82.12 72.84 82.82 72.76 82.87 72.11 83.23 71.78 83.42 71.49 83.57 71.42 83.63 70.14 84.34 70.07 84.38 69.6 84.64 69.26 84.83 68.81 85.08 68.72 85.13 67.46 85.85 67.39 85.88 67.08 86.06 66.74 86.25 66.11 86.6 66.04 86.63 64.76 87.35 64.69 87.39 64.56 87.46 64.22 87.65 63.41 88.1 63.34 88.16 62.07 88.86 62.04 88.87 61.99 88.91 61.7 89.06 60.72 89.61 60.64 89.66 59.52 90.29 59.37 90.38 59.29 90.41 59.18 90.47 58.02 91.13 57.94 91.18 57 91.7 56.67 91.88 56.67 91.88 56.6 91.92 55.32 92.63 55.25 92.69 54.49 93.11 54.15 93.3 53.97 93.4 53.9 93.44 52.64 94.14 52.55 94.19 51.97 94.52 51.63 94.71 51.29 94.91 51.2 94.94 49.94 95.66 49.87 95.69 49.45 95.93 49.11 96.12 48.59 96.41 48.52 96.44 47.24 97.16 47.17 97.21 46.93 97.34 46.59 97.53 45.91 97.91 45.82 97.97 44.56 98.67 44.47 98.72 44.41 98.75 44.07 98.94 43.21 99.42 43.14 99.47 41.89 100.17 41.86 100.19 41.79 100.22 41.56 100.35 40.51 100.94 40.44 100.97 39.38 101.57 39.16 101.69 39.09 101.73 39.04 101.75 37.82 102.44 37.74 102.49 36.86 102.98 36.52 103.17 36.47 103.2 36.39 103.25 35.12 103.95 35.04 104 34.34 104.39 34 104.59 33.77 104.72 33.69 104.75 32.42 105.47 32.35 105.5 31.99 105.71 31.65 105.9 30.56 106.51 30.56 137.92 31.65 137.32 31.66 137.31 31.66 105.95 32 105.76 32 137.12 32.35 136.93 32.42 136.9 33.69 136.2 33.77 136.15 34 136.02 34.02 136.01 34.02 104.64 34.35 104.45 34.35 135.82 35.04 135.45 35.12 135.39 36.39 134.69 36.47 134.66 36.52 134.63 36.53 134.63 36.53 103.23 36.87 103.04 36.87 134.44 37.74 133.96 37.82 133.91 39.04 133.23 39.05 133.23 39.05 101.81 39.1 101.78 39.17 101.75 39.39 101.62 39.39 133.04 40.44 132.46 40.51 132.42 41.56 131.83 41.57 131.82 41.57 100.41 41.8 100.28 41.87 100.24 41.91 100.22 41.91 131.64 43.14 130.97 43.21 130.92 44.07 130.45 44.09 130.44 44.09 98.99 44.43 98.81 44.43 130.26 44.47 130.23 44.56 130.18 45.82 129.48 45.91 129.43 46.59 129.05 46.61 129.04 46.61 97.59 46.94 97.4 46.94 128.85 47.17 128.73 47.24 128.69 48.52 127.98 48.59 127.94 49.11 127.66 49.12 127.65 49.12 96.17 49.46 95.99 49.46 127.47 49.87 127.24 49.94 127.19 51.2 126.51 51.29 126.46 51.63 126.27 51.64 126.26 51.64 94.77 51.98 94.58 51.98 126.07 52.55 125.76 52.64 125.7 53.9 125 53.97 124.97 54.15 124.87 54.16 124.86 54.16 93.36 54.5 93.17 54.5 124.67 55.25 124.25 55.32 124.22 56.6 123.52 56.67 123.47 56.67 123.46 56.68 123.46 56.68 91.94 56.69 91.94 57.02 91.75 57.02 123.27 57.94 122.76 58.02 122.73 59.18 122.09 59.2 122.08 59.2 90.53 59.3 90.47 59.39 90.43 59.54 90.35 59.54 121.89 60.64 121.26 60.72 121.21 61.7 120.65 61.72 120.65 61.72 89.12 62 88.96 62.06 88.93 62.06 120.45 62.07 120.44 63.34 119.72 63.41 119.69 64.22 119.23 64.23 119.22 64.23 87.7 64.57 87.52 64.57 119.03 64.69 118.97 64.76 118.92 66.04 118.2 66.11 118.15 66.74 117.8 66.75 117.79 66.75 86.3 67.09 86.11 67.09 117.6 67.39 117.43 67.46 117.4 68.72 116.68 68.81 116.63 69.26 116.37 69.27 116.37 69.27 84.89 69.61 84.7 69.61 116.17 70.07 115.91 70.14 115.86 71.42 115.14 71.49 115.11 71.78 114.94 71.79 114.94 71.79 83.47 72.13 83.29 72.13 114.75 72.76 114.39 72.84 114.34 74.11 113.62 74.19 113.57 74.29 113.51 74.31 113.5 74.31 82.07 74.65 81.88 74.65 113.31 75.46 112.85 75.54 112.8 76.81 112.08 76.81 112.08 76.83 112.07 76.83 80.65 76.9 80.61 77.16 80.46 77.16 111.88 78.16 111.31 78.22 111.28 79.33 110.64 79.35 110.64 79.35 79.25 79.52 79.15 79.59 79.1 79.68 79.05 79.68 110.45 80.86 109.78 80.92 109.74 81.85 109.22 81.86 109.22 81.86 77.83 82.2 77.64 82.2 109.03 82.21 109.02 82.27 108.97 83.54 108.25 83.62 108.2 84.37 107.78 84.38 107.77 84.38 76.43 84.72 76.23 84.72 107.58 84.89 107.48 84.97 107.45 86.24 106.73 86.32 106.68 86.89 106.36 86.9 106.36 86.9 75.01 87.24 74.83 87.24 106.16 87.59 105.96 87.66 105.93 88.92 105.2 89.01 105.16 89.4 104.93 89.42 104.93 89.42 73.6 89.76 73.41 89.76 104.73 89.93 104.63 89.93 73.25 89.74 73.36 89.4 73.54"/>
        <polygon class="cls-1" points="57.94 126.69 57 127.21 56.67 127.4 56.67 127.4 56.6 127.43 55.32 128.13 55.25 128.16 54.49 128.59 54.15 128.78 53.97 128.88 53.9 128.92 52.64 129.62 52.55 129.67 51.97 129.99 51.63 130.18 51.29 130.37 51.2 130.4 49.94 131.1 49.87 131.16 49.45 131.39 49.11 131.57 48.59 131.86 48.52 131.89 47.24 132.61 47.17 132.64 46.93 132.77 46.59 132.96 45.91 133.34 45.82 133.38 44.56 134.08 44.47 134.13 44.41 134.16 44.07 134.35 43.21 134.83 43.14 134.86 41.89 135.56 41.86 135.58 41.79 135.62 41.56 135.74 40.51 136.32 40.44 136.37 39.38 136.95 39.16 137.07 39.09 137.1 39.04 137.13 37.82 137.8 37.74 137.85 36.86 138.34 36.52 138.53 36.47 138.56 36.39 138.61 35.12 139.29 35.04 139.34 34.34 139.73 34 139.92 33.77 140.04 33.69 140.09 32.42 140.8 32.35 140.83 31.99 141.03 31.65 141.22 30.56 141.82 30.56 173.23 31.65 172.63 31.66 172.62 31.66 141.41 32 141.22 32 172.44 32.35 172.24 32.42 172.21 33.69 171.51 33.77 171.46 34 171.33 34.02 171.32 34.02 140.11 34.35 139.92 34.35 171.13 35.04 170.76 35.12 170.7 36.39 170 36.47 169.97 36.52 169.94 36.53 169.93 36.53 138.72 36.87 138.53 36.87 169.75 37.74 169.27 37.82 169.22 39.04 168.54 39.05 168.54 39.05 137.32 39.1 137.3 39.17 137.26 39.39 137.14 39.39 168.35 40.44 167.76 40.51 167.73 41.56 167.16 41.57 167.15 41.57 135.93 41.8 135.81 41.87 135.77 41.91 135.75 41.91 166.95 43.14 166.28 43.21 166.24 44.07 165.76 44.09 165.76 44.09 134.54 44.43 134.35 44.43 165.57 44.47 165.54 44.56 165.49 45.82 164.79 45.91 164.74 46.59 164.36 46.61 164.35 46.61 133.15 46.94 132.97 46.94 164.16 47.17 164.04 47.24 164 48.52 163.3 48.59 163.25 49.11 162.97 49.12 162.96 49.12 131.76 49.46 131.58 49.46 162.77 49.87 162.55 49.94 162.52 51.2 161.82 51.29 161.76 51.63 161.58 51.64 161.57 51.64 130.37 51.98 130.19 51.98 161.38 52.55 161.06 52.64 161.01 53.9 160.31 53.97 160.28 54.15 160.18 54.16 160.18 54.16 128.98 54.5 128.79 54.5 159.99 55.25 159.58 55.32 159.53 56.6 158.83 56.67 158.8 56.67 158.79 56.68 158.79 56.68 127.59 56.69 127.59 57.02 127.4 57.02 158.6 57.94 158.09 58.02 158.04 58.64 157.7 58.64 126.3 58.02 126.64 57.94 126.69"/>
      </g>
    </g>
  </g>
</svg>